<svg xmlns="http://www.w3.org/2000/svg" xmlns:xlink="http://www.w3.org/1999/xlink" xmlns:lucid="lucid" width="1440" height="560"><g transform="translate(-80 -80)" lucid:page-tab-id="0_0"><path d="M0 0h1870.87v1322.83H0z" fill="#fff"/><path d="M600 106c0-3.3 2.7-6 6-6h188c3.3 0 6 2.7 6 6v108c0 3.3-2.7 6-6 6H606c-3.3 0-6-2.7-6-6z" stroke="#d7987d" stroke-width="2" fill="#f9ded4"/><use xlink:href="#a" transform="matrix(1,0,0,1,612,112) translate(18.308641975308646 38.77777777777778)"/><use xlink:href="#b" transform="matrix(1,0,0,1,612,112) translate(63.98765432098766 38.77777777777778)"/><use xlink:href="#c" transform="matrix(1,0,0,1,612,112) translate(49.79012345679012 65.44444444444446)"/><path d="M802 160.08h.04l.26.06.27.06.26.07.27.1.28.1.28.1.3.15.3.15.3.18.32.2.33.24.36.26.37.3.4.35.4.42.46.48.47.56.52.66.56.8.63.94.7 1.16.78 1.43.9 1.8 1.03 2.34 1.22 3.06 1.45 4.17 1.77 5.9 2.27 8.88 3.06 14.55L827.3 238l23.03 172.45L853.4 425l2.25 8.86 1.78 5.9 1.44 4.18 1.2 3.05" stroke="#92c3be" stroke-width="2" fill="none"/><path d="M802.05 159.02l-.04 2-1-.02v-2" fill="#92c3be"/><path d="M869.72 457.6l-13.02-7.44 6.86-6.23z" stroke="#92c3be" stroke-width="2" fill="#92c3be"/><path d="M1029.1 460h51.4" stroke="#92c3be" stroke-width="2" fill="none"/><path d="M1029.13 461H1028l.2-.45-.27-1.55h1.2" fill="#92c3be"/><path d="M1095.76 460l-14.26 4.64v-9.28z" stroke="#92c3be" stroke-width="2" fill="#92c3be"/><path d="M700 222v41.4" stroke="#92c3be" stroke-width="2" fill="none"/><path d="M701 222.03h-2V221h2" fill="#92c3be"/><path d="M700 278.66l-4.64-14.27h9.28z" stroke="#92c3be" stroke-width="2" fill="#92c3be"/><path d="M700 439.1v41.4" stroke="#92c3be" stroke-width="2" fill="none"/><path d="M701 439.13h-2V438l.45.2 1.55-.27" fill="#92c3be"/><path d="M700 495.76l-4.64-14.26h9.28z" stroke="#92c3be" stroke-width="2" fill="#92c3be"/><path d="M600 506c0-3.3 2.7-6 6-6h188c3.3 0 6 2.7 6 6v108c0 3.3-2.7 6-6 6H606c-3.3 0-6-2.7-6-6z" stroke="#d7987d" stroke-width="2" fill="#f9ded4"/><use xlink:href="#d" transform="matrix(1,0,0,1,612,512) translate(24.481481481481488 38.77777777777778)"/><use xlink:href="#e" transform="matrix(1,0,0,1,612,512) translate(70.16049382716051 38.77777777777778)"/><use xlink:href="#f" transform="matrix(1,0,0,1,612,512) translate(66.27160493827161 65.44444444444446)"/><path d="M1100 406c0-3.3 2.7-6 6-6h188c3.3 0 6 2.7 6 6v108c0 3.3-2.7 6-6 6h-188c-3.3 0-6-2.7-6-6z" stroke="#d7987d" stroke-width="2" fill="#f9ded4"/><use xlink:href="#d" transform="matrix(1,0,0,1,1112,412) translate(24.481481481481488 38.77777777777778)"/><use xlink:href="#e" transform="matrix(1,0,0,1,1112,412) translate(70.16049382716051 38.77777777777778)"/><use xlink:href="#g" transform="matrix(1,0,0,1,1112,412) translate(30.09876543209876 65.44444444444446)"/><path d="M1100 106c0-3.3 2.7-6 6-6h188c3.3 0 6 2.7 6 6v108c0 3.3-2.7 6-6 6h-188c-3.3 0-6-2.7-6-6z" stroke="#d7987d" stroke-width="2" fill="#f9ded4"/><use xlink:href="#d" transform="matrix(1,0,0,1,1112,112) translate(24.481481481481488 38.77777777777778)"/><use xlink:href="#e" transform="matrix(1,0,0,1,1112,112) translate(70.16049382716051 38.77777777777778)"/><use xlink:href="#h" transform="matrix(1,0,0,1,1112,112) translate(59.635802469135804 65.44444444444446)"/><path d="M100 506c0-3.3 2.7-6 6-6h188c3.3 0 6 2.7 6 6v108c0 3.3-2.7 6-6 6H106c-3.3 0-6-2.7-6-6z" stroke="#d7987d" stroke-width="2" fill="#f9ded4"/><use xlink:href="#d" transform="matrix(1,0,0,1,112,512) translate(24.481481481481488 38.77777777777778)"/><use xlink:href="#e" transform="matrix(1,0,0,1,112,512) translate(70.16049382716051 38.77777777777778)"/><use xlink:href="#i" transform="matrix(1,0,0,1,112,512) translate(40.53086419753086 65.44444444444446)"/><path d="M802 160h51.4" stroke="#92c3be" stroke-width="2" fill="none"/><path d="M802.03 161H801v-2h1.03" fill="#92c3be"/><path d="M868.66 160l-14.27 4.64v-9.28z" stroke="#92c3be" stroke-width="2" fill="#92c3be"/><path d="M1029.1 160h51.4" stroke="#92c3be" stroke-width="2" fill="none"/><path d="M1029.13 161H1028l.2-.45-.27-1.55h1.2" fill="#92c3be"/><path d="M1095.76 160l-14.26 4.64v-9.28z" stroke="#92c3be" stroke-width="2" fill="#92c3be"/><path d="M1200 222v10.67" stroke="#92c3be" stroke-width="2" fill="none"/><path d="M1201 222.03h-2V221h2" fill="#92c3be"/><path d="M1200 247.93l-4.64-14.26h9.28z" stroke="#92c3be" stroke-width="2" fill="#92c3be"/><path d="M1200 369.83v10.67" stroke="#92c3be" stroke-width="2" fill="none"/><path d="M1200.96 368.85h.04v1h-2v-1.04" fill="#92c3be"/><path d="M1200 395.76l-4.64-14.26h9.28z" stroke="#92c3be" stroke-width="2" fill="#92c3be"/><path d="M1426 400c-3.3 0-6-2.7-6-6V226c0-3.3 2.7-6 6-6h68c3.3 0 6 2.7 6 6v168c0 3.3-2.7 6-6 6z" stroke="#000" stroke-opacity="0" stroke-width="3" fill="#fff" fill-opacity="0"/><path d="M100 106c0-3.3 2.7-6 6-6h188c3.3 0 6 2.7 6 6v108c0 3.3-2.7 6-6 6H106c-3.3 0-6-2.7-6-6z" stroke="#d7987d" stroke-width="2" fill="#f9ded4"/><use xlink:href="#j" transform="matrix(1,0,0,1,112,112) translate(1.1481481481481524 38.77777777777778)"/><use xlink:href="#k" transform="matrix(1,0,0,1,112,112) translate(46.827160493827165 38.77777777777778)"/><use xlink:href="#l" transform="matrix(1,0,0,1,112,112) translate(52.84567901234568 65.44444444444446)"/><path d="M302 160h51.4" stroke="#92c3be" stroke-width="2" fill="none"/><path d="M302.03 161H301v-2h1.03" fill="#92c3be"/><path d="M368.66 160l-14.27 4.64v-9.28z" stroke="#92c3be" stroke-width="2" fill="#92c3be"/><path d="M529.1 160h51.4" stroke="#92c3be" stroke-width="2" fill="none"/><path d="M529.13 161H528l.2-.45-.27-1.55h1.2" fill="#92c3be"/><path d="M595.76 160l-14.26 4.64v-9.28z" stroke="#92c3be" stroke-width="2" fill="#92c3be"/><path d="M529.1 560h51.4" stroke="#92c3be" stroke-width="2" fill="none"/><path d="M529.13 561H528l.2-.45-.27-1.55h1.2" fill="#92c3be"/><path d="M595.76 560l-14.26 4.64v-9.28z" stroke="#92c3be" stroke-width="2" fill="#92c3be"/><path d="M302 560h51.4" stroke="#92c3be" stroke-width="2" fill="none"/><path d="M302.03 561H301v-2h1.03" fill="#92c3be"/><path d="M368.66 560l-14.27 4.64v-9.28z" stroke="#92c3be" stroke-width="2" fill="#92c3be"/><path d="M445.2 103.6c2.65-2 6.95-2 9.6 0l70.4 52.8c2.65 2 2.65 5.2 0 7.2l-70.4 52.8c-2.65 2-6.95 2-9.6 0l-70.4-52.8c-2.65-2-2.65-5.2 0-7.2z" stroke="#d7987d" stroke-width="2" fill="#f9ded4"/><g><use xlink:href="#m" transform="matrix(1,0,0,1,375,105) translate(61.17783950617284 26.194444444444443)"/><use xlink:href="#n" transform="matrix(1,0,0,1,375,105) translate(37.00191358024692 44.8611111111111)"/><use xlink:href="#o" transform="matrix(1,0,0,1,375,105) translate(21.921666666666674 63.52777777777776)"/><use xlink:href="#p" transform="matrix(1,0,0,1,375,105) translate(42.57598765432099 63.52777777777776)"/><use xlink:href="#q" transform="matrix(1,0,0,1,375,105) translate(66.40623456790124 82.19444444444441)"/></g><g><path d="M643.6 364.8c-2-2.65-2-6.95 0-9.6l52.8-70.4c2-2.65 5.2-2.65 7.2 0l52.8 70.4c2 2.65 2 6.95 0 9.6l-52.8 70.4c-2 2.65-5.2 2.65-7.2 0z" stroke="#d7987d" stroke-width="2" fill="#f9ded4"/></g><g><use xlink:href="#r" transform="matrix(6.123233995736766e-17,-1,1,6.123233995736766e-17,645,435) translate(27.949444444444456 50.25694444444444)"/><use xlink:href="#s" transform="matrix(6.123233995736766e-17,-1,1,6.123233995736766e-17,645,435) translate(68.56672839506174 50.25694444444444)"/><use xlink:href="#t" transform="matrix(6.123233995736766e-17,-1,1,6.123233995736766e-17,645,435) translate(97.94944444444445 50.25694444444444)"/><use xlink:href="#u" transform="matrix(6.123233995736766e-17,-1,1,6.123233995736766e-17,645,435) translate(41.409320987654326 68.9236111111111)"/><use xlink:href="#v" transform="matrix(6.123233995736766e-17,-1,1,6.123233995736766e-17,645,435) translate(62.06364197530865 68.9236111111111)"/><use xlink:href="#w" transform="matrix(6.123233995736766e-17,-1,1,6.123233995736766e-17,645,435) translate(90.49574074074073 68.9236111111111)"/></g><path d="M945.2 103.6c2.65-2 6.95-2 9.6 0l70.4 52.8c2.65 2 2.65 5.2 0 7.2l-70.4 52.8c-2.65 2-6.95 2-9.6 0l-70.4-52.8c-2.65-2-2.65-5.2 0-7.2z" stroke="#d7987d" stroke-width="2" fill="#f9ded4"/><g><use xlink:href="#x" transform="matrix(1,0,0,1,875,105) translate(59.449444444444445 20.979166666666664)"/><use xlink:href="#y" transform="matrix(1,0,0,1,875,105) translate(33.94944444444446 36.97916666666666)"/><use xlink:href="#z" transform="matrix(1,0,0,1,875,105) translate(59.13462962962963 36.97916666666666)"/><use xlink:href="#A" transform="matrix(1,0,0,1,875,105) translate(104.24574074074073 36.97916666666666)"/><use xlink:href="#B" transform="matrix(1,0,0,1,875,105) translate(20.708703703703726 52.97916666666666)"/><use xlink:href="#C" transform="matrix(1,0,0,1,875,105) translate(62.81981481481482 52.97916666666666)"/><use xlink:href="#D" transform="matrix(1,0,0,1,875,105) translate(115.30129629629627 52.97916666666666)"/><use xlink:href="#z" transform="matrix(1,0,0,1,875,105) translate(25.4864814814815 68.97916666666666)"/><use xlink:href="#E" transform="matrix(1,0,0,1,875,105) translate(70.59759259259259 68.97916666666666)"/><use xlink:href="#F" transform="matrix(1,0,0,1,875,105) translate(86.11611111111111 68.97916666666666)"/><use xlink:href="#G" transform="matrix(1,0,0,1,875,105) translate(50.61611111111112 84.97916666666666)"/><use xlink:href="#H" transform="matrix(1,0,0,1,875,105) translate(67.24574074074074 100.97916666666666)"/></g><path d="M945.2 403.6c2.65-2 6.95-2 9.6 0l70.4 52.8c2.65 2 2.65 5.2 0 7.2l-70.4 52.8c-2.65 2-6.95 2-9.6 0l-70.4-52.8c-2.65-2-2.65-5.2 0-7.2z" stroke="#d7987d" stroke-width="2" fill="#f9ded4"/><g><use xlink:href="#x" transform="matrix(1,0,0,1,875,405) translate(59.449444444444445 20.979166666666664)"/><use xlink:href="#y" transform="matrix(1,0,0,1,875,405) translate(33.94944444444446 36.97916666666666)"/><use xlink:href="#z" transform="matrix(1,0,0,1,875,405) translate(59.13462962962963 36.97916666666666)"/><use xlink:href="#A" transform="matrix(1,0,0,1,875,405) translate(104.24574074074073 36.97916666666666)"/><use xlink:href="#B" transform="matrix(1,0,0,1,875,405) translate(20.708703703703726 52.97916666666666)"/><use xlink:href="#C" transform="matrix(1,0,0,1,875,405) translate(62.81981481481482 52.97916666666666)"/><use xlink:href="#D" transform="matrix(1,0,0,1,875,405) translate(115.30129629629627 52.97916666666666)"/><use xlink:href="#z" transform="matrix(1,0,0,1,875,405) translate(25.4864814814815 68.97916666666666)"/><use xlink:href="#E" transform="matrix(1,0,0,1,875,405) translate(70.59759259259259 68.97916666666666)"/><use xlink:href="#F" transform="matrix(1,0,0,1,875,405) translate(86.11611111111111 68.97916666666666)"/><use xlink:href="#G" transform="matrix(1,0,0,1,875,405) translate(50.61611111111112 84.97916666666666)"/><use xlink:href="#H" transform="matrix(1,0,0,1,875,405) translate(67.24574074074074 100.97916666666666)"/></g><path d="M1195.2 253.6c2.65-2 6.95-2 9.6 0l70.4 52.8c2.65 2 2.65 5.2 0 7.2l-70.4 52.8c-2.65 2-6.95 2-9.6 0l-70.4-52.8c-2.65-2-2.65-5.2 0-7.2z" stroke="#d7987d" stroke-width="2" fill="#f9ded4"/><g><use xlink:href="#I" transform="matrix(1,0,0,1,1125,255) translate(46.856851851851864 38.166666666666664)"/><use xlink:href="#J" transform="matrix(1,0,0,1,1125,255) translate(81.67166666666667 38.166666666666664)"/><use xlink:href="#K" transform="matrix(1,0,0,1,1125,255) translate(42.06055555555557 54.166666666666664)"/><use xlink:href="#L" transform="matrix(1,0,0,1,1125,255) translate(23.597592592592616 70.16666666666666)"/><use xlink:href="#M" transform="matrix(1,0,0,1,1125,255) translate(41.301296296296314 70.16666666666666)"/><use xlink:href="#H" transform="matrix(1,0,0,1,1125,255) translate(110.89388888888887 70.16666666666666)"/></g><path d="M445.2 503.6c2.65-2 6.95-2 9.6 0l70.4 52.8c2.65 2 2.65 5.2 0 7.2l-70.4 52.8c-2.65 2-6.95 2-9.6 0l-70.4-52.8c-2.65-2-2.65-5.2 0-7.2z" stroke="#d7987d" stroke-width="2" fill="#f9ded4"/><g><use xlink:href="#x" transform="matrix(1,0,0,1,375,505) translate(59.449444444444445 20.979166666666664)"/><use xlink:href="#y" transform="matrix(1,0,0,1,375,505) translate(33.94944444444446 36.97916666666666)"/><use xlink:href="#z" transform="matrix(1,0,0,1,375,505) translate(59.13462962962963 36.97916666666666)"/><use xlink:href="#A" transform="matrix(1,0,0,1,375,505) translate(104.24574074074073 36.97916666666666)"/><use xlink:href="#B" transform="matrix(1,0,0,1,375,505) translate(20.708703703703726 52.97916666666666)"/><use xlink:href="#C" transform="matrix(1,0,0,1,375,505) translate(62.81981481481482 52.97916666666666)"/><use xlink:href="#D" transform="matrix(1,0,0,1,375,505) translate(115.30129629629627 52.97916666666666)"/><use xlink:href="#z" transform="matrix(1,0,0,1,375,505) translate(25.4864814814815 68.97916666666666)"/><use xlink:href="#E" transform="matrix(1,0,0,1,375,505) translate(70.59759259259259 68.97916666666666)"/><use xlink:href="#F" transform="matrix(1,0,0,1,375,505) translate(86.11611111111111 68.97916666666666)"/><use xlink:href="#G" transform="matrix(1,0,0,1,375,505) translate(50.61611111111112 84.97916666666666)"/><use xlink:href="#H" transform="matrix(1,0,0,1,375,505) translate(67.24574074074074 100.97916666666666)"/></g><defs><path fill="#2d6b75" d="M30 0v-248h187v28H63v79h144v27H63v87h162V0H30" id="N"/><path fill="#2d6b75" d="M101-251c82-7 93 87 43 132L82-64C71-53 59-42 53-27h129V0H18c2-99 128-94 128-182 0-28-16-43-45-43s-46 15-49 41l-32-3c6-41 34-60 81-64" id="O"/><path fill="#2d6b75" d="M27 0v-27h64v-190l-56 39v-29l58-41h29v221h61V0H27" id="P"/><g id="a"><use transform="matrix(0.06172839506172839,0,0,0.06172839506172839,0,0)" xlink:href="#N"/><use transform="matrix(0.06172839506172839,0,0,0.06172839506172839,14.814814814814813,0)" xlink:href="#O"/><use transform="matrix(0.06172839506172839,0,0,0.06172839506172839,27.160493827160494,0)" xlink:href="#P"/></g><path fill="#2d6b75" d="M30-248c87 1 191-15 191 75 0 78-77 80-158 76V0H30v-248zm33 125c57 0 124 11 124-50 0-59-68-47-124-48v98" id="Q"/><path fill="#2d6b75" d="M233-177c-1 41-23 64-60 70L243 0h-38l-65-103H63V0H30v-248c88 3 205-21 203 71zM63-129c60-2 137 13 137-47 0-61-80-42-137-45v92" id="R"/><path fill="#2d6b75" d="M185-189c-5-48-123-54-124 2 14 75 158 14 163 119 3 78-121 87-175 55-17-10-28-26-33-46l33-7c5 56 141 63 141-1 0-78-155-14-162-118-5-82 145-84 179-34 5 7 8 16 11 25" id="S"/><path fill="#2d6b75" d="M140-251c81 0 123 46 123 126C263-46 219 4 140 4 59 4 17-45 17-125s42-126 123-126zm0 227c63 0 89-41 89-101s-29-99-89-99c-61 0-89 39-89 99S79-25 140-24" id="T"/><path fill="#2d6b75" d="M190 0L58-211 59 0H30v-248h39L202-35l-2-213h31V0h-41" id="U"/><g id="b"><use transform="matrix(0.06172839506172839,0,0,0.06172839506172839,0,0)" xlink:href="#Q"/><use transform="matrix(0.06172839506172839,0,0,0.06172839506172839,14.814814814814813,0)" xlink:href="#N"/><use transform="matrix(0.06172839506172839,0,0,0.06172839506172839,29.629629629629626,0)" xlink:href="#R"/><use transform="matrix(0.06172839506172839,0,0,0.06172839506172839,45.61728395061728,0)" xlink:href="#S"/><use transform="matrix(0.06172839506172839,0,0,0.06172839506172839,60.43209876543209,0)" xlink:href="#T"/><use transform="matrix(0.06172839506172839,0,0,0.06172839506172839,77.71604938271604,0)" xlink:href="#U"/></g><path fill="#2d6b75" d="M33 0v-248h34V0H33" id="V"/><path fill="#2d6b75" d="M117-194c89-4 53 116 60 194h-32v-121c0-31-8-49-39-48C34-167 62-67 57 0H25l-1-190h30c1 10-1 24 2 32 11-22 29-35 61-36" id="W"/><path fill="#2d6b75" d="M85-194c31 0 48 13 60 33l-1-100h32l1 261h-30c-2-10 0-23-3-31C134-8 116 4 85 4 32 4 16-35 15-94c0-66 23-100 70-100zm9 24c-40 0-46 34-46 75 0 40 6 74 45 74 42 0 51-32 51-76 0-42-9-74-50-73" id="X"/><path fill="#2d6b75" d="M24-231v-30h32v30H24zM24 0v-190h32V0H24" id="Y"/><path fill="#2d6b75" d="M108 0H70L1-190h34L89-25l56-165h34" id="Z"/><path fill="#2d6b75" d="M84 4C-5 8 30-112 23-190h32v120c0 31 7 50 39 49 72-2 45-101 50-169h31l1 190h-30c-1-10 1-25-2-33-11 22-28 36-60 37" id="aa"/><g id="c"><use transform="matrix(0.06172839506172839,0,0,0.06172839506172839,0,0)" xlink:href="#V"/><use transform="matrix(0.06172839506172839,0,0,0.06172839506172839,6.172839506172839,0)" xlink:href="#W"/><use transform="matrix(0.06172839506172839,0,0,0.06172839506172839,18.51851851851852,0)" xlink:href="#X"/><use transform="matrix(0.06172839506172839,0,0,0.06172839506172839,30.864197530864196,0)" xlink:href="#Y"/><use transform="matrix(0.06172839506172839,0,0,0.06172839506172839,35.74074074074074,0)" xlink:href="#Z"/><use transform="matrix(0.06172839506172839,0,0,0.06172839506172839,46.85185185185185,0)" xlink:href="#Y"/><use transform="matrix(0.06172839506172839,0,0,0.06172839506172839,51.72839506172839,0)" xlink:href="#X"/><use transform="matrix(0.06172839506172839,0,0,0.06172839506172839,64.07407407407408,0)" xlink:href="#aa"/></g><path fill="#2d6b75" d="M64 0c3-98 48-159 88-221H18v-27h164v26C143-157 98-101 97 0H64" id="ab"/><path fill="#2d6b75" d="M155-56V0h-30v-56H8v-25l114-167h33v167h35v25h-35zm-30-156c-27 46-58 90-88 131h88v-131" id="ac"/><g id="d"><use transform="matrix(0.06172839506172839,0,0,0.06172839506172839,0,0)" xlink:href="#N"/><use transform="matrix(0.06172839506172839,0,0,0.06172839506172839,14.814814814814813,0)" xlink:href="#ab"/><use transform="matrix(0.06172839506172839,0,0,0.06172839506172839,27.160493827160494,0)" xlink:href="#ac"/></g><path fill="#2d6b75" d="M143 4C61 4 22-44 18-125c-5-107 100-154 193-111 17 8 29 25 37 43l-32 9c-13-25-37-40-76-40-61 0-88 39-88 99 0 61 29 100 91 101 35 0 62-11 79-27v-45h-74v-28h105v86C228-13 192 4 143 4" id="ad"/><path fill="#2d6b75" d="M232-93c-1 65-40 97-104 97C67 4 28-28 28-90v-158h33c8 89-33 224 67 224 102 0 64-133 71-224h33v155" id="ae"/><g id="e"><use transform="matrix(0.06172839506172839,0,0,0.06172839506172839,0,0)" xlink:href="#ad"/><use transform="matrix(0.06172839506172839,0,0,0.06172839506172839,17.28395061728395,0)" xlink:href="#R"/><use transform="matrix(0.06172839506172839,0,0,0.06172839506172839,33.2716049382716,0)" xlink:href="#T"/><use transform="matrix(0.06172839506172839,0,0,0.06172839506172839,50.55555555555555,0)" xlink:href="#ae"/><use transform="matrix(0.06172839506172839,0,0,0.06172839506172839,66.5432098765432,0)" xlink:href="#Q"/></g><path fill="#2d6b75" d="M127-220V0H93v-220H8v-28h204v28h-85" id="af"/><path fill="#2d6b75" d="M59-47c-2 24 18 29 38 22v24C64 9 27 4 27-40v-127H5v-23h24l9-43h21v43h35v23H59v120" id="ag"/><path fill="#2d6b75" d="M114-163C36-179 61-72 57 0H25l-1-190h30c1 12-1 29 2 39 6-27 23-49 58-41v29" id="ah"/><path fill="#2d6b75" d="M100-194c63 0 86 42 84 106H49c0 40 14 67 53 68 26 1 43-12 49-29l28 8c-11 28-37 45-77 45C44 4 14-33 15-96c1-61 26-98 85-98zm52 81c6-60-76-77-97-28-3 7-6 17-6 28h103" id="ai"/><g id="f"><use transform="matrix(0.06172839506172839,0,0,0.06172839506172839,0,0)" xlink:href="#af"/><use transform="matrix(0.06172839506172839,0,0,0.06172839506172839,12.716049382716047,0)" xlink:href="#Y"/><use transform="matrix(0.06172839506172839,0,0,0.06172839506172839,17.592592592592588,0)" xlink:href="#ag"/><use transform="matrix(0.06172839506172839,0,0,0.06172839506172839,23.765432098765427,0)" xlink:href="#ah"/><use transform="matrix(0.06172839506172839,0,0,0.06172839506172839,31.111111111111107,0)" xlink:href="#ai"/></g><path fill="#2d6b75" d="M212-179c-10-28-35-45-73-45-59 0-87 40-87 99 0 60 29 101 89 101 43 0 62-24 78-52l27 14C228-24 195 4 139 4 59 4 22-46 18-125c-6-104 99-153 187-111 19 9 31 26 39 46" id="aj"/><path fill="#2d6b75" d="M100-194c62-1 85 37 85 99 1 63-27 99-86 99S16-35 15-95c0-66 28-99 85-99zM99-20c44 1 53-31 53-75 0-43-8-75-51-75s-53 32-53 75 10 74 51 75" id="ak"/><path fill="#2d6b75" d="M115-194c55 1 70 41 70 98S169 2 115 4C84 4 66-9 55-30l1 105H24l-1-265h31l2 30c10-21 28-34 59-34zm-8 174c40 0 45-34 45-75s-6-73-45-74c-42 0-51 32-51 76 0 43 10 73 51 73" id="al"/><path fill="#2d6b75" d="M141-36C126-15 110 5 73 4 37 3 15-17 15-53c-1-64 63-63 125-63 3-35-9-54-41-54-24 1-41 7-42 31l-33-3c5-37 33-52 76-52 45 0 72 20 72 64v82c-1 20 7 32 28 27v20c-31 9-61-2-59-35zM48-53c0 20 12 33 32 33 41-3 63-29 60-74-43 2-92-5-92 41" id="am"/><g id="g"><use transform="matrix(0.06172839506172839,0,0,0.06172839506172839,0,0)" xlink:href="#aj"/><use transform="matrix(0.06172839506172839,0,0,0.06172839506172839,15.987654320987653,0)" xlink:href="#ak"/><use transform="matrix(0.06172839506172839,0,0,0.06172839506172839,28.333333333333332,0)" xlink:href="#ah"/><use transform="matrix(0.06172839506172839,0,0,0.06172839506172839,35.67901234567901,0)" xlink:href="#al"/><use transform="matrix(0.06172839506172839,0,0,0.06172839506172839,48.02469135802469,0)" xlink:href="#ak"/><use transform="matrix(0.06172839506172839,0,0,0.06172839506172839,60.37037037037037,0)" xlink:href="#ah"/><use transform="matrix(0.06172839506172839,0,0,0.06172839506172839,67.71604938271605,0)" xlink:href="#am"/><use transform="matrix(0.06172839506172839,0,0,0.06172839506172839,80.06172839506173,0)" xlink:href="#ag"/><use transform="matrix(0.06172839506172839,0,0,0.06172839506172839,86.23456790123457,0)" xlink:href="#Y"/><use transform="matrix(0.06172839506172839,0,0,0.06172839506172839,91.11111111111111,0)" xlink:href="#ak"/><use transform="matrix(0.06172839506172839,0,0,0.06172839506172839,103.4567901234568,0)" xlink:href="#W"/></g><path fill="#2d6b75" d="M100-194c63 0 86 42 84 106H49c0 40 14 67 53 68 26 1 43-12 49-29l28 8c-11 28-37 45-77 45C44 4 14-33 15-96c1-61 26-98 85-98zm52 81c6-60-76-77-97-28-3 7-6 17-6 28h103zm-32-149c12 18 30 30 39 51-31 2-38-20-57-30-20 10-27 32-59 30 9-22 29-33 41-51h36" id="an"/><path fill="#2d6b75" d="M24 0v-261h32V0H24" id="ao"/><g id="h"><use transform="matrix(0.06172839506172839,0,0,0.06172839506172839,0,0)" xlink:href="#Q"/><use transform="matrix(0.06172839506172839,0,0,0.06172839506172839,14.814814814814813,0)" xlink:href="#ak"/><use transform="matrix(0.06172839506172839,0,0,0.06172839506172839,27.160493827160494,0)" xlink:href="#an"/><use transform="matrix(0.06172839506172839,0,0,0.06172839506172839,39.50617283950617,0)" xlink:href="#ao"/><use transform="matrix(0.06172839506172839,0,0,0.06172839506172839,44.382716049382715,0)" xlink:href="#ai"/></g><path fill="#2d6b75" d="M135-143c-3-34-86-38-87 0 15 53 115 12 119 90S17 21 10-45l28-5c4 36 97 45 98 0-10-56-113-15-118-90-4-57 82-63 122-42 12 7 21 19 24 35" id="ap"/><g id="i"><use transform="matrix(0.06172839506172839,0,0,0.06172839506172839,0,0)" xlink:href="#V"/><use transform="matrix(0.06172839506172839,0,0,0.06172839506172839,6.172839506172839,0)" xlink:href="#W"/><use transform="matrix(0.06172839506172839,0,0,0.06172839506172839,18.51851851851852,0)" xlink:href="#ap"/><use transform="matrix(0.06172839506172839,0,0,0.06172839506172839,29.62962962962963,0)" xlink:href="#ag"/><use transform="matrix(0.06172839506172839,0,0,0.06172839506172839,35.80246913580247,0)" xlink:href="#Y"/><use transform="matrix(0.06172839506172839,0,0,0.06172839506172839,40.67901234567901,0)" xlink:href="#ag"/><use transform="matrix(0.06172839506172839,0,0,0.06172839506172839,46.851851851851855,0)" xlink:href="#aa"/><use transform="matrix(0.06172839506172839,0,0,0.06172839506172839,59.19753086419753,0)" xlink:href="#ag"/><use transform="matrix(0.06172839506172839,0,0,0.06172839506172839,65.37037037037037,0)" xlink:href="#Y"/><use transform="matrix(0.06172839506172839,0,0,0.06172839506172839,70.24691358024691,0)" xlink:href="#ak"/><use transform="matrix(0.06172839506172839,0,0,0.06172839506172839,82.5925925925926,0)" xlink:href="#W"/></g><path fill="#2d6b75" d="M126-127c33 6 58 20 58 59 0 88-139 92-164 29-3-8-5-16-6-25l32-3c6 27 21 44 54 44 32 0 52-15 52-46 0-38-36-46-79-43v-28c39 1 72-4 72-42 0-27-17-43-46-43-28 0-47 15-49 41l-32-3c6-42 35-63 81-64 48-1 79 21 79 65 0 36-21 52-52 59" id="aq"/><g id="j"><use transform="matrix(0.06172839506172839,0,0,0.06172839506172839,0,0)" xlink:href="#N"/><use transform="matrix(0.06172839506172839,0,0,0.06172839506172839,14.814814814814813,0)" xlink:href="#aq"/><use transform="matrix(0.06172839506172839,0,0,0.06172839506172839,27.160493827160494,0)" xlink:href="#P"/></g><path fill="#2d6b75" d="M30-248c118-7 216 8 213 122C240-48 200 0 122 0H30v-248zM63-27c89 8 146-16 146-99s-60-101-146-95v194" id="ar"/><path fill="#2d6b75" d="M240 0l2-218c-23 76-54 145-80 218h-23L58-218 59 0H30v-248h44l77 211c21-75 51-140 76-211h43V0h-30" id="as"/><g id="k"><use transform="matrix(0.06172839506172839,0,0,0.06172839506172839,0,0)" xlink:href="#ar"/><use transform="matrix(0.06172839506172839,0,0,0.06172839506172839,15.987654320987653,0)" xlink:href="#T"/><use transform="matrix(0.06172839506172839,0,0,0.06172839506172839,33.2716049382716,0)" xlink:href="#aj"/><use transform="matrix(0.06172839506172839,0,0,0.06172839506172839,49.25925925925925,0)" xlink:href="#ae"/><use transform="matrix(0.06172839506172839,0,0,0.06172839506172839,65.24691358024691,0)" xlink:href="#as"/><use transform="matrix(0.06172839506172839,0,0,0.06172839506172839,83.7037037037037,0)" xlink:href="#N"/><use transform="matrix(0.06172839506172839,0,0,0.06172839506172839,98.5185185185185,0)" xlink:href="#U"/><use transform="matrix(0.06172839506172839,0,0,0.06172839506172839,114.50617283950616,0)" xlink:href="#af"/></g><path fill="#2d6b75" d="M96-169c-40 0-48 33-48 73s9 75 48 75c24 0 41-14 43-38l32 2c-6 37-31 61-74 61-59 0-76-41-82-99-10-93 101-131 147-64 4 7 5 14 7 22l-32 3c-4-21-16-35-41-35" id="at"/><g id="l"><use transform="matrix(0.06172839506172839,0,0,0.06172839506172839,0,0)" xlink:href="#S"/><use transform="matrix(0.06172839506172839,0,0,0.06172839506172839,14.814814814814813,0)" xlink:href="#ak"/><use transform="matrix(0.06172839506172839,0,0,0.06172839506172839,27.160493827160494,0)" xlink:href="#aa"/><use transform="matrix(0.06172839506172839,0,0,0.06172839506172839,39.50617283950617,0)" xlink:href="#ah"/><use transform="matrix(0.06172839506172839,0,0,0.06172839506172839,46.85185185185185,0)" xlink:href="#at"/><use transform="matrix(0.06172839506172839,0,0,0.06172839506172839,57.96296296296296,0)" xlink:href="#ai"/></g><path fill="#2d6b75" d="M101-251c68 0 85 55 85 127S166 4 100 4C33 4 14-52 14-124c0-73 17-127 87-127zm-1 229c47 0 54-49 54-102s-4-102-53-102c-51 0-55 48-55 102 0 53 5 102 54 102" id="au"/><g id="m"><use transform="matrix(0.04320987654320986,0,0,0.04320987654320986,0,0)" xlink:href="#Q"/><use transform="matrix(0.04320987654320986,0,0,0.04320987654320986,10.370370370370367,0)" xlink:href="#ab"/><use transform="matrix(0.04320987654320986,0,0,0.04320987654320986,19.01234567901234,0)" xlink:href="#au"/></g><path fill="#2d6b75" d="M210-169c-67 3-38 105-44 169h-31v-121c0-29-5-50-35-48C34-165 62-65 56 0H25l-1-190h30c1 10-1 24 2 32 10-44 99-50 107 0 11-21 27-35 58-36 85-2 47 119 55 194h-31v-121c0-29-5-49-35-48" id="av"/><g id="n"><use transform="matrix(0.04320987654320986,0,0,0.04320987654320986,0,0)" xlink:href="#X"/><use transform="matrix(0.04320987654320986,0,0,0.04320987654320986,8.641975308641973,0)" xlink:href="#ak"/><use transform="matrix(0.04320987654320986,0,0,0.04320987654320986,17.283950617283946,0)" xlink:href="#at"/><use transform="matrix(0.04320987654320986,0,0,0.04320987654320986,25.06172839506172,0)" xlink:href="#aa"/><use transform="matrix(0.04320987654320986,0,0,0.04320987654320986,33.703703703703695,0)" xlink:href="#av"/><use transform="matrix(0.04320987654320986,0,0,0.04320987654320986,46.62345679012344,0)" xlink:href="#ai"/><use transform="matrix(0.04320987654320986,0,0,0.04320987654320986,55.26543209876541,0)" xlink:href="#W"/><use transform="matrix(0.04320987654320986,0,0,0.04320987654320986,63.90740740740739,0)" xlink:href="#ag"/><use transform="matrix(0.04320987654320986,0,0,0.04320987654320986,68.22839506172838,0)" xlink:href="#ap"/></g><path fill="#2d6b75" d="M87 75C49 33 22-17 22-94c0-76 28-126 65-167h31c-38 41-64 92-64 168S80 34 118 75H87" id="aw"/><g id="o"><use transform="matrix(0.04320987654320986,0,0,0.04320987654320986,0,0)" xlink:href="#aw"/><use transform="matrix(0.04320987654320986,0,0,0.04320987654320986,5.141975308641974,0)" xlink:href="#Y"/><use transform="matrix(0.04320987654320986,0,0,0.04320987654320986,8.555555555555554,0)" xlink:href="#ap"/></g><g id="p"><use transform="matrix(0.04320987654320986,0,0,0.04320987654320986,0,0)" xlink:href="#X"/><use transform="matrix(0.04320987654320986,0,0,0.04320987654320986,8.641975308641973,0)" xlink:href="#ak"/><use transform="matrix(0.04320987654320986,0,0,0.04320987654320986,17.283950617283946,0)" xlink:href="#at"/><use transform="matrix(0.04320987654320986,0,0,0.04320987654320986,25.06172839506172,0)" xlink:href="#aa"/><use transform="matrix(0.04320987654320986,0,0,0.04320987654320986,33.703703703703695,0)" xlink:href="#av"/><use transform="matrix(0.04320987654320986,0,0,0.04320987654320986,46.62345679012344,0)" xlink:href="#ai"/><use transform="matrix(0.04320987654320986,0,0,0.04320987654320986,55.26543209876541,0)" xlink:href="#W"/><use transform="matrix(0.04320987654320986,0,0,0.04320987654320986,63.90740740740739,0)" xlink:href="#ag"/><use transform="matrix(0.04320987654320986,0,0,0.04320987654320986,68.22839506172838,0)" xlink:href="#ai"/><use transform="matrix(0.04320987654320986,0,0,0.04320987654320986,76.87037037037035,0)" xlink:href="#X"/></g><path fill="#2d6b75" d="M33-261c38 41 65 92 65 168S71 34 33 75H2C39 34 66-17 66-93S39-220 2-261h31" id="ax"/><g id="q"><use transform="matrix(0.04320987654320986,0,0,0.04320987654320986,0,0)" xlink:href="#Y"/><use transform="matrix(0.04320987654320986,0,0,0.04320987654320986,3.413580246913579,0)" xlink:href="#W"/><use transform="matrix(0.04320987654320986,0,0,0.04320987654320986,12.055555555555552,0)" xlink:href="#ax"/></g><g id="r"><use transform="matrix(0.04320987654320986,0,0,0.04320987654320986,0,0)" xlink:href="#Q"/><use transform="matrix(0.04320987654320986,0,0,0.04320987654320986,10.370370370370367,0)" xlink:href="#P"/><use transform="matrix(0.04320987654320986,0,0,0.04320987654320986,19.01234567901234,0)" xlink:href="#au"/><use transform="matrix(0.04320987654320986,0,0,0.04320987654320986,27.654320987654316,0)" xlink:href="#O"/></g><path fill="#2d6b75" d="M106-169C34-169 62-67 57 0H25v-261h32l-1 103c12-21 28-36 61-36 89 0 53 116 60 194h-32v-121c2-32-8-49-39-48" id="ay"/><g id="s"><use transform="matrix(0.04320987654320986,0,0,0.04320987654320986,0,0)" xlink:href="#ay"/><use transform="matrix(0.04320987654320986,0,0,0.04320987654320986,8.641975308641973,0)" xlink:href="#am"/><use transform="matrix(0.04320987654320986,0,0,0.04320987654320986,17.283950617283946,0)" xlink:href="#ap"/></g><g id="t"><use transform="matrix(0.04320987654320986,0,0,0.04320987654320986,0,0)" xlink:href="#ag"/><use transform="matrix(0.04320987654320986,0,0,0.04320987654320986,4.320987654320986,0)" xlink:href="#Y"/><use transform="matrix(0.04320987654320986,0,0,0.04320987654320986,7.734567901234565,0)" xlink:href="#ag"/><use transform="matrix(0.04320987654320986,0,0,0.04320987654320986,12.055555555555552,0)" xlink:href="#ao"/><use transform="matrix(0.04320987654320986,0,0,0.04320987654320986,15.46913580246913,0)" xlink:href="#ai"/></g><g id="u"><use transform="matrix(0.04320987654320986,0,0,0.04320987654320986,0,0)" xlink:href="#aw"/><use transform="matrix(0.04320987654320986,0,0,0.04320987654320986,5.141975308641974,0)" xlink:href="#Y"/><use transform="matrix(0.04320987654320986,0,0,0.04320987654320986,8.555555555555554,0)" xlink:href="#ap"/></g><g id="v"><use transform="matrix(0.04320987654320986,0,0,0.04320987654320986,0,0)" xlink:href="#ag"/><use transform="matrix(0.04320987654320986,0,0,0.04320987654320986,4.320987654320986,0)" xlink:href="#Y"/><use transform="matrix(0.04320987654320986,0,0,0.04320987654320986,7.734567901234565,0)" xlink:href="#ag"/><use transform="matrix(0.04320987654320986,0,0,0.04320987654320986,12.055555555555552,0)" xlink:href="#ao"/><use transform="matrix(0.04320987654320986,0,0,0.04320987654320986,15.46913580246913,0)" xlink:href="#ai"/></g><path fill="#2d6b75" d="M101-234c-31-9-42 10-38 44h38v23H63V0H32v-167H5v-23h27c-7-52 17-82 69-68v24" id="az"/><g id="w"><use transform="matrix(0.04320987654320986,0,0,0.04320987654320986,0,0)" xlink:href="#ak"/><use transform="matrix(0.04320987654320986,0,0,0.04320987654320986,8.641975308641973,0)" xlink:href="#az"/><use transform="matrix(0.04320987654320986,0,0,0.04320987654320986,12.962962962962958,0)" xlink:href="#ax"/></g><g id="x"><use transform="matrix(0.03703703703703702,0,0,0.03703703703703702,0,0)" xlink:href="#Q"/><use transform="matrix(0.03703703703703702,0,0,0.03703703703703702,8.888888888888886,0)" xlink:href="#P"/><use transform="matrix(0.03703703703703702,0,0,0.03703703703703702,16.29629629629629,0)" xlink:href="#au"/><use transform="matrix(0.03703703703703702,0,0,0.03703703703703702,23.703703703703695,0)" xlink:href="#ab"/></g><g id="y"><use transform="matrix(0.03703703703703702,0,0,0.03703703703703702,0,0)" xlink:href="#ay"/><use transform="matrix(0.03703703703703702,0,0,0.03703703703703702,7.407407407407404,0)" xlink:href="#am"/><use transform="matrix(0.03703703703703702,0,0,0.03703703703703702,14.814814814814808,0)" xlink:href="#ap"/></g><g id="z"><use transform="matrix(0.03703703703703702,0,0,0.03703703703703702,0,0)" xlink:href="#at"/><use transform="matrix(0.03703703703703702,0,0,0.03703703703703702,6.666666666666663,0)" xlink:href="#aa"/><use transform="matrix(0.03703703703703702,0,0,0.03703703703703702,14.074074074074067,0)" xlink:href="#ah"/><use transform="matrix(0.03703703703703702,0,0,0.03703703703703702,18.481481481481474,0)" xlink:href="#ah"/><use transform="matrix(0.03703703703703702,0,0,0.03703703703703702,22.88888888888888,0)" xlink:href="#ai"/><use transform="matrix(0.03703703703703702,0,0,0.03703703703703702,30.296296296296283,0)" xlink:href="#W"/><use transform="matrix(0.03703703703703702,0,0,0.03703703703703702,37.70370370370369,0)" xlink:href="#ag"/></g><g id="A"><use transform="matrix(0.03703703703703702,0,0,0.03703703703703702,0,0)" xlink:href="#ak"/><use transform="matrix(0.03703703703703702,0,0,0.03703703703703702,7.407407407407404,0)" xlink:href="#ah"/></g><g id="B"><use transform="matrix(0.03703703703703702,0,0,0.03703703703703702,0,0)" xlink:href="#az"/><use transform="matrix(0.03703703703703702,0,0,0.03703703703703702,3.703703703703702,0)" xlink:href="#ak"/><use transform="matrix(0.03703703703703702,0,0,0.03703703703703702,11.111111111111107,0)" xlink:href="#ah"/><use transform="matrix(0.03703703703703702,0,0,0.03703703703703702,15.518518518518512,0)" xlink:href="#av"/><use transform="matrix(0.03703703703703702,0,0,0.03703703703703702,26.59259259259258,0)" xlink:href="#ai"/><use transform="matrix(0.03703703703703702,0,0,0.03703703703703702,33.999999999999986,0)" xlink:href="#ah"/></g><path fill="#2d6b75" d="M115-194c53 0 69 39 70 98 0 66-23 100-70 100C84 3 66-7 56-30L54 0H23l1-261h32v101c10-23 28-34 59-34zm-8 174c40 0 45-34 45-75 0-40-5-75-45-74-42 0-51 32-51 76 0 43 10 73 51 73" id="aA"/><g id="C"><use transform="matrix(0.03703703703703702,0,0,0.03703703703703702,0,0)" xlink:href="#av"/><use transform="matrix(0.03703703703703702,0,0,0.03703703703703702,11.074074074074069,0)" xlink:href="#ai"/><use transform="matrix(0.03703703703703702,0,0,0.03703703703703702,18.481481481481474,0)" xlink:href="#av"/><use transform="matrix(0.03703703703703702,0,0,0.03703703703703702,29.555555555555543,0)" xlink:href="#aA"/><use transform="matrix(0.03703703703703702,0,0,0.03703703703703702,36.96296296296295,0)" xlink:href="#ai"/><use transform="matrix(0.03703703703703702,0,0,0.03703703703703702,44.37037037037035,0)" xlink:href="#ah"/></g><g id="D"><use transform="matrix(0.03703703703703702,0,0,0.03703703703703702,0,0)" xlink:href="#aw"/><use transform="matrix(0.03703703703703702,0,0,0.03703703703703702,4.407407407407406,0)" xlink:href="#Y"/><use transform="matrix(0.03703703703703702,0,0,0.03703703703703702,7.33333333333333,0)" xlink:href="#ap"/></g><g id="E"><use transform="matrix(0.03703703703703702,0,0,0.03703703703703702,0,0)" xlink:href="#ak"/><use transform="matrix(0.03703703703703702,0,0,0.03703703703703702,7.407407407407404,0)" xlink:href="#ah"/></g><g id="F"><use transform="matrix(0.03703703703703702,0,0,0.03703703703703702,0,0)" xlink:href="#az"/><use transform="matrix(0.03703703703703702,0,0,0.03703703703703702,3.703703703703702,0)" xlink:href="#ak"/><use transform="matrix(0.03703703703703702,0,0,0.03703703703703702,11.111111111111107,0)" xlink:href="#ah"/><use transform="matrix(0.03703703703703702,0,0,0.03703703703703702,15.518518518518512,0)" xlink:href="#av"/><use transform="matrix(0.03703703703703702,0,0,0.03703703703703702,26.59259259259258,0)" xlink:href="#ai"/><use transform="matrix(0.03703703703703702,0,0,0.03703703703703702,33.999999999999986,0)" xlink:href="#ah"/></g><g id="G"><use transform="matrix(0.03703703703703702,0,0,0.03703703703703702,0,0)" xlink:href="#av"/><use transform="matrix(0.03703703703703702,0,0,0.03703703703703702,11.074074074074069,0)" xlink:href="#ai"/><use transform="matrix(0.03703703703703702,0,0,0.03703703703703702,18.481481481481474,0)" xlink:href="#av"/><use transform="matrix(0.03703703703703702,0,0,0.03703703703703702,29.555555555555543,0)" xlink:href="#aA"/><use transform="matrix(0.03703703703703702,0,0,0.03703703703703702,36.96296296296295,0)" xlink:href="#ai"/><use transform="matrix(0.03703703703703702,0,0,0.03703703703703702,44.37037037037035,0)" xlink:href="#ah"/></g><g id="H"><use transform="matrix(0.03703703703703702,0,0,0.03703703703703702,0,0)" xlink:href="#ak"/><use transform="matrix(0.03703703703703702,0,0,0.03703703703703702,7.407407407407404,0)" xlink:href="#az"/><use transform="matrix(0.03703703703703702,0,0,0.03703703703703702,11.111111111111107,0)" xlink:href="#ax"/></g><path fill="#2d6b75" d="M134-131c28 9 52 24 51 62-1 50-34 73-85 73S17-19 16-69c0-36 21-54 49-61-75-25-45-126 34-121 46 3 78 18 79 63 0 33-17 51-44 57zm-34-11c31 1 46-15 46-44 0-28-17-43-47-42-29 0-46 13-45 42 1 28 16 44 46 44zm1 122c35 0 51-18 51-52 0-30-18-46-53-46-33 0-51 17-51 47 0 34 19 51 53 51" id="aB"/><g id="I"><use transform="matrix(0.03703703703703702,0,0,0.03703703703703702,0,0)" xlink:href="#Q"/><use transform="matrix(0.03703703703703702,0,0,0.03703703703703702,8.888888888888886,0)" xlink:href="#P"/><use transform="matrix(0.03703703703703702,0,0,0.03703703703703702,16.29629629629629,0)" xlink:href="#ac"/><use transform="matrix(0.03703703703703702,0,0,0.03703703703703702,23.703703703703695,0)" xlink:href="#aB"/></g><g id="J"><use transform="matrix(0.03703703703703702,0,0,0.03703703703703702,0,0)" xlink:href="#ay"/><use transform="matrix(0.03703703703703702,0,0,0.03703703703703702,7.407407407407404,0)" xlink:href="#am"/><use transform="matrix(0.03703703703703702,0,0,0.03703703703703702,14.814814814814808,0)" xlink:href="#ap"/></g><g id="K"><use transform="matrix(0.03703703703703702,0,0,0.03703703703703702,0,0)" xlink:href="#at"/><use transform="matrix(0.03703703703703702,0,0,0.03703703703703702,6.666666666666663,0)" xlink:href="#ak"/><use transform="matrix(0.03703703703703702,0,0,0.03703703703703702,14.074074074074067,0)" xlink:href="#av"/><use transform="matrix(0.03703703703703702,0,0,0.03703703703703702,25.148148148148138,0)" xlink:href="#al"/><use transform="matrix(0.03703703703703702,0,0,0.03703703703703702,32.55555555555554,0)" xlink:href="#ak"/><use transform="matrix(0.03703703703703702,0,0,0.03703703703703702,39.96296296296295,0)" xlink:href="#W"/><use transform="matrix(0.03703703703703702,0,0,0.03703703703703702,47.37037037037035,0)" xlink:href="#ai"/><use transform="matrix(0.03703703703703702,0,0,0.03703703703703702,54.77777777777776,0)" xlink:href="#W"/><use transform="matrix(0.03703703703703702,0,0,0.03703703703703702,62.185185185185155,0)" xlink:href="#ag"/></g><g id="L"><use transform="matrix(0.03703703703703702,0,0,0.03703703703703702,0,0)" xlink:href="#aw"/><use transform="matrix(0.03703703703703702,0,0,0.03703703703703702,4.407407407407406,0)" xlink:href="#Y"/><use transform="matrix(0.03703703703703702,0,0,0.03703703703703702,7.33333333333333,0)" xlink:href="#ap"/></g><g id="M"><use transform="matrix(0.03703703703703702,0,0,0.03703703703703702,0,0)" xlink:href="#at"/><use transform="matrix(0.03703703703703702,0,0,0.03703703703703702,6.666666666666663,0)" xlink:href="#ak"/><use transform="matrix(0.03703703703703702,0,0,0.03703703703703702,14.074074074074067,0)" xlink:href="#av"/><use transform="matrix(0.03703703703703702,0,0,0.03703703703703702,25.148148148148138,0)" xlink:href="#al"/><use transform="matrix(0.03703703703703702,0,0,0.03703703703703702,32.55555555555554,0)" xlink:href="#ak"/><use transform="matrix(0.03703703703703702,0,0,0.03703703703703702,39.96296296296295,0)" xlink:href="#W"/><use transform="matrix(0.03703703703703702,0,0,0.03703703703703702,47.37037037037035,0)" xlink:href="#ai"/><use transform="matrix(0.03703703703703702,0,0,0.03703703703703702,54.77777777777776,0)" xlink:href="#W"/><use transform="matrix(0.03703703703703702,0,0,0.03703703703703702,62.185185185185155,0)" xlink:href="#ag"/></g></defs></g></svg>